<svg width="64" height="32" fill="none" xmlns="http://www.w3.org/2000/svg"><path d="M62.26 28.575H51.448l-7.158-12.28h8.656c.452 0 .886-.179 1.206-.496a1.681 1.681 0 000-2.388 1.713 1.713 0 00-1.206-.495H42.324l-5.546-9.514h8.462a1.719 1.719 0 001.228-.482 1.688 1.688 0 00.512-1.207 1.674 1.674 0 00-.512-1.207A1.706 1.706 0 0045.24.024H33.78c-.328 0-.649.095-.924.272a1.691 1.691 0 00-.627.725 1.673 1.673 0 00.282 1.812l15 25.742h-8.55L22.816.868A1.703 1.703 0 0021.78.101a1.719 1.719 0 00-1.28.173 1.691 1.691 0 00-.79 1.012c-.12.427-.065.884.152 1.271l6.57 11.275V23.96L12.977.868a1.704 1.704 0 00-1.035-.767 1.719 1.719 0 00-1.28.173 1.691 1.691 0 00-.791 1.012c-.12.427-.064.884.153 1.271l6.628 11.375V23.96L3.195.868A1.693 1.693 0 002.159.061 1.72 1.72 0 00.35.666 1.683 1.683 0 00.016 1.93c.033.222.11.435.225.627l16.523 28.351c.142.368.41.676.756.87a1.717 1.717 0 002.142-.388c.255-.302.396-.683.397-1.077v-10.53l6.481 11.125c.14.37.408.68.756.874a1.717 1.717 0 002.147-.39c.255-.304.395-.687.394-1.082V19.682l6.658 11.426.016.023c.029.049.06.095.094.14l.034.044c.04.052.084.1.13.146.012.013.025.023.039.035a1.54 1.54 0 00.293.219c.014.008.027.017.042.024.058.033.118.062.18.087l.027.01c.054.02.109.039.165.054l.05.013c.05.012.1.022.152.029l.053.009c.063.007.126.01.19.011H62.26a1.72 1.72 0 001.228-.482A1.687 1.687 0 0064 30.264a1.676 1.676 0 00-.512-1.207 1.706 1.706 0 00-1.228-.482z" fill="#006D77"/></svg>