<svg width="64" height="32" viewBox="0 0 64 32" fill="none" xmlns="http://www.w3.org/2000/svg">
<path d="M62.2596 28.5747H51.4483L44.2898 16.2943H52.9463C53.3984 16.2943 53.8321 16.1163 54.1518 15.7995C54.4716 15.4827 54.6512 15.0531 54.6512 14.6051C54.6512 14.1571 54.4716 13.7274 54.1518 13.4106C53.8321 13.0939 53.3984 12.9159 52.9463 12.9159H42.3235L36.7779 3.40166H45.2399C45.4667 3.40633 45.6922 3.3661 45.9031 3.28333C46.1141 3.20056 46.3062 3.0769 46.4683 2.91962C46.6304 2.76233 46.7591 2.57458 46.847 2.36736C46.935 2.16013 46.9802 1.93761 46.9802 1.71283C46.9802 1.48805 46.935 1.26552 46.847 1.0583C46.7591 0.851076 46.6304 0.663322 46.4683 0.506037C46.3062 0.348751 46.1141 0.225099 45.9031 0.142326C45.6922 0.0595529 45.4667 0.0193228 45.2399 0.0239944H33.7804C33.4523 0.0244341 33.1313 0.118805 32.856 0.295752C32.5807 0.472699 32.3629 0.724686 32.2288 1.02139C32.0947 1.3181 32.0499 1.64689 32.0999 1.96819C32.15 2.2895 32.2926 2.58965 32.5108 2.83251L47.5111 28.5747H38.9608L22.8159 0.868229C22.586 0.487987 22.2143 0.212543 21.7813 0.101309C21.3482 -0.00992537 20.8883 0.0519659 20.5009 0.273633C20.1134 0.495301 19.8294 0.858979 19.7102 1.28622C19.5909 1.71346 19.646 2.17002 19.8634 2.55743L26.4327 13.8316V23.9602L12.9767 0.868229C12.7467 0.487987 12.3751 0.212543 11.9421 0.101309C11.509 -0.00992537 11.0491 0.0519659 10.6617 0.273633C10.2742 0.495301 9.99024 0.858979 9.87099 1.28622C9.75173 1.71346 9.80676 2.17002 10.0242 2.55743L16.6524 13.9323V23.9602L3.19494 0.868229C3.085 0.672354 2.93682 0.500114 2.75902 0.361545C2.58123 0.222975 2.37738 0.120847 2.15935 0.0611083C1.94132 0.00137007 1.71348 -0.0147824 1.48909 0.0135908C1.2647 0.0419641 1.04825 0.114295 0.85235 0.226372C0.656454 0.338449 0.485027 0.488031 0.348058 0.666401C0.211089 0.844771 0.111315 1.04836 0.0545508 1.26532C-0.00221363 1.48227 -0.0148339 1.70825 0.0174246 1.93008C0.0496831 2.15192 0.126176 2.36517 0.242446 2.55743L16.7651 30.9082C16.9069 31.2763 17.1742 31.5837 17.5207 31.7771C17.8672 31.9704 18.271 32.0376 18.6623 31.9669C19.0535 31.8962 19.4074 31.6921 19.6627 31.39C19.918 31.0879 20.0586 30.7068 20.0601 30.3128V19.7829L26.541 30.9082C26.6818 31.278 26.9493 31.5871 27.2966 31.7816C27.6439 31.9761 28.0491 32.0436 28.4416 31.9724C28.834 31.9012 29.1888 31.6957 29.444 31.3919C29.6992 31.0881 29.8387 30.7052 29.8381 30.3099V19.6822L36.4958 31.1081L36.512 31.1315C36.541 31.1795 36.5725 31.226 36.6063 31.2709C36.6173 31.2855 36.6284 31.3008 36.6401 31.3154C36.6804 31.3667 36.724 31.4155 36.7705 31.4613C36.7823 31.4737 36.7955 31.4839 36.8088 31.4956C36.8449 31.5292 36.8824 31.562 36.9215 31.5919C36.9399 31.6065 36.959 31.6204 36.9782 31.6342C37.018 31.6627 37.0592 31.689 37.1019 31.7145C37.1159 31.7225 37.1292 31.732 37.1439 31.7393C37.2022 31.7719 37.2624 31.8009 37.3243 31.8261L37.3508 31.8356C37.4048 31.8566 37.4599 31.8746 37.5158 31.8896L37.5666 31.9028C37.6164 31.9151 37.6668 31.9248 37.7176 31.9319L37.7714 31.9407C37.8342 31.9479 37.8974 31.9518 37.9606 31.9524H62.2596C62.4865 31.957 62.712 31.9168 62.9229 31.834C63.1338 31.7513 63.326 31.6276 63.488 31.4703C63.6501 31.3131 63.7789 31.1253 63.8668 30.9181C63.9547 30.7108 64 30.4883 64 30.2635C64 30.0388 63.9547 29.8162 63.8668 29.609C63.7789 29.4018 63.6501 29.214 63.488 29.0568C63.326 28.8995 63.1338 28.7758 62.9229 28.693C62.712 28.6103 62.4865 28.57 62.2596 28.5747Z" fill="#006D77"/>
</svg>
