<?xml version="1.0" standalone="no"?>
<!DOCTYPE svg PUBLIC "-//W3C//DTD SVG 20010904//EN"
 "http://www.w3.org/TR/2001/REC-SVG-20010904/DTD/svg10.dtd">
<svg version="1.0" xmlns="http://www.w3.org/2000/svg"
 width="1024.000000pt" height="1024.000000pt" viewBox="0 0 1024.000000 1024.000000"
 preserveAspectRatio="xMidYMid meet">
<metadata>
Created by potrace 1.14, written by Peter Selinger 2001-2017
</metadata>
<g transform="translate(0.000000,1024.000000) scale(0.100000,-0.100000)"
fill="#000000" stroke="none">
<path d="M177 7662 c-57 -20 -118 -76 -149 -134 -39 -74 -29 -202 22 -278 19
-30 133 -224 162 -279 17 -31 37 -63 44 -72 8 -8 14 -18 14 -21 0 -3 37 -68
81 -144 45 -77 90 -152 99 -169 16 -28 273 -469 314 -538 185 -318 271 -466
280 -484 6 -13 14 -23 19 -23 4 0 7 -6 7 -12 0 -7 18 -41 40 -76 22 -34 40
-64 40 -66 0 -2 58 -103 130 -226 71 -122 130 -226 130 -231 0 -5 5 -9 10 -9
6 0 10 -4 10 -9 0 -5 45 -86 100 -180 55 -93 100 -174 100 -180 0 -5 4 -11 8
-13 7 -3 54 -81 120 -198 13 -25 28 -49 32 -55 4 -5 17 -26 28 -46 24 -43 328
-568 342 -589 9 -15 58 -98 90 -155 10 -16 88 -151 174 -298 87 -148 167 -285
178 -305 11 -20 29 -50 39 -67 10 -16 30 -52 44 -80 60 -111 137 -159 255
-159 57 0 85 5 115 21 73 39 137 117 149 184 3 13 5 409 6 879 1 760 2 853 16
835 8 -11 51 -84 97 -163 45 -79 87 -151 92 -160 6 -9 34 -59 63 -109 29 -51
58 -95 63 -98 5 -4 7 -10 4 -15 -3 -4 2 -13 10 -20 8 -7 15 -16 15 -21 0 -5
19 -39 42 -76 22 -38 50 -84 61 -103 20 -36 141 -243 157 -270 66 -108 350
-603 350 -610 0 -6 4 -10 9 -10 5 0 14 -12 20 -27 6 -16 23 -49 38 -75 71
-120 150 -169 262 -164 113 5 199 62 242 159 l23 52 2 870 c1 479 2 872 3 875
1 3 8 -8 16 -24 9 -16 39 -70 68 -119 29 -48 61 -105 73 -125 24 -43 118 -203
145 -247 10 -16 30 -52 44 -80 15 -27 33 -57 40 -65 6 -8 15 -22 19 -30 3 -8
18 -36 34 -61 32 -55 168 -290 272 -469 40 -69 77 -126 81 -128 5 -2 9 -11 9
-20 0 -8 6 -23 13 -31 12 -14 46 -71 125 -211 59 -105 146 -245 161 -260 28
-29 75 -57 116 -70 32 -11 423 -13 2020 -13 1089 0 1991 3 2005 6 82 18 152
71 192 147 32 62 32 176 1 236 -28 53 -76 99 -132 127 l-46 22 -890 2 c-489 1
-895 3 -902 3 -11 0 -113 163 -113 181 0 5 -4 9 -10 9 -5 0 -10 4 -10 9 0 5
-36 70 -80 145 -44 76 -80 141 -80 146 0 6 -4 10 -10 10 -5 0 -10 4 -10 9 0 8
-27 58 -76 136 -13 22 -27 47 -31 55 -4 8 -22 38 -40 67 -18 29 -33 57 -33 63
0 5 -5 10 -11 10 -5 0 -8 4 -5 9 3 5 -1 14 -9 21 -8 7 -15 19 -15 26 0 8 -4
14 -10 14 -5 0 -10 4 -10 9 0 5 -83 152 -185 326 -102 174 -185 321 -185 326
0 5 -4 9 -10 9 -5 0 -10 4 -10 10 0 8 -32 65 -100 180 -74 123 -108 185 -104
189 2 2 327 5 721 5 l718 1 47 23 c85 42 130 95 152 179 17 63 12 114 -18 177
-32 68 -67 103 -135 134 l-56 26 -876 0 -877 0 -29 51 c-17 27 -69 118 -118
200 -48 83 -99 170 -113 195 -13 25 -31 53 -40 63 -8 9 -12 17 -9 17 4 0 -14
31 -38 69 -25 38 -45 72 -45 74 0 3 -20 40 -45 81 -25 42 -45 81 -45 85 0 5
-3 11 -8 13 -7 3 -65 100 -125 208 -16 30 -35 62 -41 70 -13 18 -31 49 -64
110 -13 25 -28 50 -32 55 -4 6 -17 27 -29 48 -40 70 -58 102 -79 137 -12 19
-22 37 -22 40 0 3 309 5 688 6 378 0 704 4 725 7 21 4 50 13 65 21 37 19 112
92 112 109 0 7 5 18 12 25 27 27 29 162 3 212 -40 80 -107 139 -177 157 -12 3
-458 6 -991 7 -930 2 -969 1 -1019 -17 -94 -35 -166 -129 -173 -226 -5 -67 8
-114 46 -175 32 -51 165 -275 212 -357 23 -41 62 -107 98 -167 9 -15 31 -54
49 -87 18 -33 41 -72 51 -87 11 -14 19 -28 19 -31 0 -3 23 -42 50 -87 28 -45
50 -84 50 -86 0 -3 16 -30 36 -61 19 -31 40 -65 45 -77 6 -12 15 -30 22 -41
14 -23 63 -105 90 -150 10 -16 20 -38 23 -47 4 -10 10 -18 15 -18 5 0 9 -4 9
-10 0 -5 14 -33 32 -62 28 -48 70 -119 118 -204 19 -33 106 -180 120 -204 11
-17 72 -123 129 -222 10 -18 47 -82 83 -143 75 -128 277 -474 306 -525 11 -19
50 -87 87 -150 37 -63 79 -135 93 -160 14 -25 33 -57 43 -72 11 -14 19 -29 19
-32 0 -3 25 -46 55 -96 30 -50 55 -95 55 -100 0 -6 5 -10 11 -10 5 0 8 -4 5
-9 -3 -5 1 -14 9 -21 8 -7 15 -19 15 -26 0 -8 5 -14 10 -14 6 0 10 -4 10 -10
0 -5 44 -85 99 -177 54 -92 108 -184 118 -203 11 -19 68 -116 126 -215 58 -99
104 -181 102 -183 -2 -2 -308 -4 -681 -3 l-678 0 -18 23 c-10 13 -18 26 -18
29 0 4 -52 96 -116 205 -64 110 -125 213 -134 229 -10 17 -43 75 -75 130 -32
55 -66 112 -76 127 -11 14 -19 31 -19 37 0 7 -5 17 -10 24 -23 26 -80 122 -80
134 0 7 -4 13 -9 13 -5 0 -11 8 -14 18 -4 9 -18 37 -33 62 -14 25 -54 92 -89
150 -34 58 -73 125 -87 150 -36 64 -197 340 -217 370 -8 14 -14 28 -13 33 1 4
-3 7 -8 7 -6 0 -10 5 -10 10 0 6 -11 29 -26 51 -14 22 -33 55 -43 72 -10 18
-57 98 -104 180 -48 81 -87 150 -87 153 0 2 -5 10 -10 17 -6 7 -45 71 -86 142
-107 184 -126 217 -138 242 -6 13 -14 23 -18 23 -5 0 -8 4 -8 10 0 5 -27 55
-60 111 -33 55 -60 102 -60 103 0 2 -62 108 -120 206 -34 58 -196 336 -200
345 -3 5 -17 29 -33 52 -15 24 -27 44 -27 47 0 2 -18 34 -40 70 -22 36 -40 70
-40 76 0 5 -4 10 -9 10 -5 0 -11 8 -14 18 -4 9 -18 37 -33 62 -15 25 -35 59
-44 75 -9 17 -32 55 -50 85 -18 30 -42 71 -53 90 -54 96 -72 126 -80 131 -5 3
-9 10 -9 15 -1 8 -7 21 -35 69 -7 11 -40 68 -73 126 -64 110 -107 165 -150
191 -40 24 -97 40 -146 40 -46 0 -144 -30 -144 -44 0 -4 -5 -8 -11 -8 -16 0
-68 -61 -91 -109 -15 -30 -21 -64 -22 -106 0 -69 26 -129 128 -300 30 -49 63
-106 74 -125 10 -19 178 -307 372 -640 194 -332 361 -618 370 -636 10 -17 24
-42 32 -55 7 -13 15 -26 18 -29 3 -3 12 -18 20 -35 8 -16 18 -32 21 -35 4 -3
16 -24 28 -47 21 -42 21 -45 21 -845 0 -799 -1 -803 -20 -778 -11 14 -20 28
-20 32 0 3 -23 43 -50 88 -28 45 -50 83 -50 86 0 2 -18 33 -40 69 -22 36 -40
68 -40 71 0 3 -8 18 -19 32 -10 15 -28 43 -38 62 -11 19 -84 145 -163 280 -78
135 -150 259 -160 276 -10 17 -37 62 -59 99 -23 37 -41 68 -41 70 0 1 -37 65
-81 141 -112 191 -121 206 -133 229 -6 11 -74 127 -151 258 -77 130 -151 259
-165 285 -13 26 -30 53 -37 60 -7 7 -13 20 -13 28 0 8 -4 14 -10 14 -5 0 -10
4 -10 9 0 5 -34 67 -75 136 -41 70 -75 130 -75 133 0 3 -6 13 -14 21 -7 9 -26
41 -42 71 -16 30 -33 59 -37 65 -9 12 -257 437 -257 441 0 1 -18 32 -40 68
-22 36 -40 68 -40 71 0 3 -5 11 -10 18 -17 19 -230 389 -230 398 0 5 -4 9 -10
9 -5 0 -10 5 -10 12 0 42 -116 140 -182 154 -167 35 -328 -84 -337 -247 -4
-68 12 -113 74 -218 30 -51 55 -97 55 -101 0 -5 6 -15 13 -22 16 -17 137 -227
137 -238 0 -5 4 -10 8 -12 5 -1 28 -39 52 -83 24 -44 47 -81 52 -83 4 -2 8 -7
8 -12 0 -5 27 -54 60 -110 33 -56 60 -103 60 -105 0 -1 29 -51 65 -110 36 -59
65 -108 65 -110 0 -3 97 -171 130 -225 24 -40 239 -410 263 -454 16 -28 34
-60 41 -71 9 -15 12 -206 11 -807 0 -432 -3 -789 -6 -793 -4 -3 -14 9 -23 27
-8 18 -40 74 -71 123 -30 50 -60 102 -66 118 -6 15 -15 27 -20 27 -5 0 -9 5
-9 11 0 6 -45 87 -100 181 -55 93 -100 174 -100 178 0 5 -3 10 -7 12 -8 3 -46
69 -68 115 -5 13 -13 23 -17 23 -5 0 -8 7 -8 15 0 8 -4 15 -10 15 -5 0 -10 4
-10 9 0 5 -23 49 -51 98 -29 48 -62 106 -74 128 -38 67 -145 249 -155 265 -5
8 -21 35 -35 60 -14 25 -30 52 -35 60 -19 29 -230 393 -230 397 0 2 -17 32
-38 66 -20 34 -43 71 -49 82 -6 11 -51 88 -99 170 -48 83 -108 184 -132 225
-25 41 -59 100 -75 130 -17 30 -38 67 -49 82 -10 14 -18 28 -18 31 0 3 -22 42
-50 86 -27 44 -50 83 -50 86 0 3 -16 31 -36 62 -19 31 -40 65 -45 77 -13 27
-32 60 -45 77 -6 8 -28 46 -49 84 -21 39 -45 81 -55 95 -10 14 -27 43 -39 65
-11 22 -32 58 -45 80 -30 48 -47 78 -73 125 -10 19 -31 54 -46 77 -15 24 -27
45 -27 48 0 17 -76 118 -109 144 -74 59 -175 75 -264 43z"/>
</g>
</svg>
