<svg width="41" height="20" viewBox="0 0 41 20" fill="none" xmlns="http://www.w3.org/2000/svg">
<path d="M2 8.75C1.30964 8.75 0.75 9.30964 0.75 10C0.75 10.6904 1.30964 11.25 2 11.25L2 8.75ZM39.8839 10.8839C40.372 10.3957 40.372 9.60427 39.8839 9.11611L31.9289 1.16116C31.4408 0.673008 30.6493 0.673009 30.1612 1.16116C29.673 1.64932 29.673 2.44078 30.1612 2.92893L37.2322 10L30.1612 17.0711C29.673 17.5592 29.673 18.3507 30.1612 18.8388C30.6493 19.327 31.4408 19.327 31.9289 18.8388L39.8839 10.8839ZM2 11.25L39 11.25L39 8.75L2 8.75L2 11.25Z" fill="#006D77"/>
</svg>
