<?xml version="1.0" encoding="utf-8"?><svg viewBox="0 0 64 32" xmlns="http://www.w3.org/2000/svg" xmlns:xlink="http://www.w3.org/1999/xlink"><style>:root>svg{display:none}:root>svg:target{display:block}</style><svg viewBox="0 0 41 20" id="arrow-long" xmlns="http://www.w3.org/2000/svg"><path d="M2 8.75a1.25 1.25 0 100 2.5v-2.5zm37.884 2.134a1.25 1.25 0 000-1.768l-7.955-7.955A1.25 1.25 0 1030.16 2.93L37.232 10l-7.07 7.071a1.25 1.25 0 101.767 1.768l7.955-7.955zM2 11.25h37v-2.5H2v2.5z"/></svg><svg viewBox="0 0 24 23" id="cart" xmlns="http://www.w3.org/2000/svg"><path d="M1 1h4l2.68 13.39a2 2 0 002 1.61h9.72a2 2 0 002-1.61L23 6H6m4 15a1 1 0 11-2 0 1 1 0 012 0zm11 0a1 1 0 11-2 0 1 1 0 012 0z" stroke-width="1.5" stroke-linecap="round" stroke-linejoin="round"/></svg><svg viewBox="0 0 22 20" id="heart" xmlns="http://www.w3.org/2000/svg"><path d="M19.458 2.591a5.255 5.255 0 00-1.708-1.177 5.122 5.122 0 00-4.028 0 5.255 5.255 0 00-1.708 1.177L11 3.638 9.986 2.59a5.183 5.183 0 00-3.722-1.59 5.183 5.183 0 00-3.722 1.59A5.52 5.52 0 001 6.431a5.52 5.52 0 001.542 3.841L11 19l8.458-8.728a5.445 5.445 0 001.141-1.762 5.58 5.58 0 000-4.157 5.445 5.445 0 00-1.141-1.762z"/></svg><svg viewBox="0 0 17 17" id="instagram" xmlns="http://www.w3.org/2000/svg"><path d="M14.58 0H2.42C1.045 0 0 1.046 0 2.42v12.16C0 15.955 1.046 17 2.42 17h12.16c1.374 0 2.42-1.046 2.42-2.42V2.42C17 1.045 15.954 0 14.58 0zM8.5 13.6c2.812 0 5.1-2.223 5.1-4.904 0-.458-.065-.98-.196-1.373h1.438v6.93a.655.655 0 01-.654.655H2.813a.655.655 0 01-.654-.654V7.258h1.504c-.131.457-.197.915-.197 1.373C3.4 11.377 5.688 13.6 8.5 13.6zm0-1.961c-1.83 0-3.27-1.439-3.27-3.204 0-1.766 1.44-3.204 3.27-3.204s3.27 1.438 3.27 3.204c0 1.83-1.44 3.204-3.27 3.204zm6.277-6.997c0 .393-.327.72-.72.72h-1.83a.726.726 0 01-.72-.72V2.877c0-.392.328-.72.72-.72h1.83c.393 0 .72.328.72.72v1.765z"/></svg><svg viewBox="0 0 64 32" id="logo" xmlns="http://www.w3.org/2000/svg"><path d="M62.26 28.575H51.448l-7.158-12.28h8.656c.452 0 .886-.179 1.206-.496a1.681 1.681 0 000-2.388 1.713 1.713 0 00-1.206-.495H42.324l-5.546-9.514h8.462a1.719 1.719 0 001.228-.482 1.688 1.688 0 00.512-1.207 1.674 1.674 0 00-.512-1.207A1.706 1.706 0 0045.24.024H33.78c-.328 0-.649.095-.924.272a1.691 1.691 0 00-.627.725 1.673 1.673 0 00.282 1.812l15 25.742h-8.55L22.816.868A1.703 1.703 0 0021.78.101a1.719 1.719 0 00-1.28.173 1.691 1.691 0 00-.79 1.012c-.12.427-.065.884.152 1.271l6.57 11.275V23.96L12.977.868a1.704 1.704 0 00-1.035-.767 1.719 1.719 0 00-1.28.173 1.691 1.691 0 00-.791 1.012c-.12.427-.064.884.153 1.271l6.628 11.375V23.96L3.195.868A1.693 1.693 0 002.159.061 1.72 1.72 0 00.35.666 1.683 1.683 0 00.016 1.93c.033.222.11.435.225.627l16.523 28.351c.142.368.41.676.756.87a1.717 1.717 0 002.142-.388c.255-.302.396-.683.397-1.077v-10.53l6.481 11.125c.14.37.408.68.756.874a1.717 1.717 0 002.147-.39c.255-.304.395-.687.394-1.082V19.682l6.658 11.426.016.023c.029.049.06.095.094.14l.034.044c.04.052.084.1.13.146.012.013.025.023.039.035a1.54 1.54 0 00.293.219c.014.008.027.017.042.024.058.033.118.062.18.087l.027.01c.054.02.109.039.165.054l.05.013c.05.012.1.022.152.029l.053.009c.063.007.126.01.19.011H62.26a1.72 1.72 0 001.228-.482A1.687 1.687 0 0064 30.264a1.676 1.676 0 00-.512-1.207 1.706 1.706 0 00-1.228-.482z"/></svg><svg viewBox="0 0 20 20" id="search" xmlns="http://www.w3.org/2000/svg"><path d="M19 19l-4.35-4.35M17 9A8 8 0 111 9a8 8 0 0116 0z" stroke-width="1.5" stroke-linecap="round" stroke-linejoin="round"/></svg><svg viewBox="0 0 20 18" id="telegram" xmlns="http://www.w3.org/2000/svg"><path d="M.35 8.374L4.95 10.09l1.792 5.767c.078.39.546.467.858.234l2.571-2.105c.234-.233.624-.233.935 0l4.599 3.351c.311.234.779.078.857-.311L19.99.659c.078-.39-.312-.78-.701-.624L.35 7.361c-.468.156-.468.857 0 1.013zm6.157.857l9.04-5.533c.157-.078.313.156.157.234L8.3 10.868c-.234.234-.468.546-.468.935l-.233 1.87c0 .234-.39.312-.468 0l-.935-3.428c-.234-.39-.078-.858.311-1.014z"/></svg><svg viewBox="0 0 18 20" id="user" xmlns="http://www.w3.org/2000/svg"><path d="M17 19v-2a4 4 0 00-4-4H5a4 4 0 00-4 4v2M13 5a4 4 0 11-8 0 4 4 0 018 0z" stroke-width="1.5" stroke-linecap="round" stroke-linejoin="round"/></svg><svg viewBox="0 0 21 23" id="viber" xmlns="http://www.w3.org/2000/svg"><path d="M16.254.546a30.984 30.984 0 00-11.581 0C2.987.91.86 2.948.495 4.549a22.87 22.87 0 000 9.463c.44 1.601 2.565 3.64 4.178 4.003.073 0 .146.073.146.146v4.585c0 .219.294.364.44.146l2.2-2.256s1.758-1.82 2.051-2.111c0 0 .074-.073.147-.073 2.199.073 4.471-.146 6.67-.51 1.686-.364 3.812-2.402 4.178-4.003.66-3.13.66-6.333 0-9.463-.44-1.528-2.565-3.566-4.251-3.93zm.073 13.684c-.366.728-.806 1.31-1.539 1.674l-.66.219a9.276 9.276 0 01-.733-.219c-2.345-.946-4.544-2.256-6.303-4.149a17.504 17.504 0 01-2.42-3.64c-.292-.654-.586-1.236-.806-1.892-.22-.582.147-1.164.514-1.6.366-.438.806-.729 1.319-.947.366-.219.733-.073 1.026.218.587.728 1.173 1.456 1.613 2.257.293.51.22 1.091-.293 1.455-.147.073-.22.146-.367.292-.073.072-.22.145-.293.29-.147.22-.147.437-.073.656.586 1.674 1.685 2.984 3.371 3.712.293.146.513.218.88.218.513-.072.733-.655 1.1-.946.366-.291.806-.291 1.245-.073.367.219.733.51 1.173.801.367.291.733.51 1.1.8.22.146.293.51.146.874zM13.25 8.771c-.147 0-.074 0 0 0-.293 0-.367-.146-.44-.364 0-.146 0-.364-.073-.51a1.383 1.383 0 00-.514-.8l-.44-.218c-.22-.073-.366-.073-.586-.073-.22-.073-.293-.219-.293-.437 0-.146.22-.291.367-.291 1.172.073 2.052.728 2.199 2.11v.292c0 .145-.074.291-.22.291zm-.733-3.203c-.367-.145-.733-.29-1.173-.364-.147 0-.367-.072-.513-.072-.22 0-.367-.146-.293-.364 0-.219.146-.364.366-.292.733.073 1.393.219 2.053.51 1.319.655 2.052 1.747 2.272 3.203v.946c-.073.291-.587.364-.66 0 0-.073-.073-.218-.073-.291 0-.655-.147-1.31-.44-1.893-.44-.655-.953-1.092-1.54-1.383zm3.958 4.368c-.22 0-.367-.219-.367-.437 0-.437-.073-.874-.146-1.31-.293-2.33-2.2-4.222-4.472-4.586-.366-.073-.732-.073-1.026-.146-.22 0-.513 0-.586-.29-.073-.22.147-.437.366-.437h.147c3.005.072.147 0 0 0 3.079.072 5.644 2.11 6.157 5.168.073.51.147 1.019.147 1.6.146.22 0 .438-.22.438z"/></svg><svg viewBox="0 0 21 21" id="whatsapp" xmlns="http://www.w3.org/2000/svg"><path d="M17.927 3.063A10.428 10.428 0 0010.537 0C4.757 0 .073 4.667.073 10.427c0 1.823.512 3.646 1.39 5.177L0 21l5.561-1.458c1.537.802 3.22 1.24 4.976 1.24 5.78 0 10.463-4.667 10.463-10.428-.073-2.698-1.098-5.323-3.073-7.291zm-2.342 11.083c-.22.583-1.244 1.166-1.756 1.24a4.104 4.104 0 01-1.61-.073c-.365-.146-.877-.292-1.463-.584-2.634-1.094-4.317-3.719-4.463-3.937-.147-.146-1.098-1.386-1.098-2.698 0-1.313.659-1.896.878-2.188.22-.291.512-.291.732-.291h.512c.146 0 .366-.073.585.437.22.51.732 1.823.805 1.896a.463.463 0 010 .437 1.525 1.525 0 01-.292.438c-.147.146-.293.364-.366.437-.147.146-.293.292-.147.51.147.293.659 1.095 1.464 1.824 1.024.875 1.83 1.166 2.122 1.312.293.146.439.073.585-.073.146-.146.659-.729.805-1.02.146-.292.366-.22.585-.146.22.073 1.537.729 1.757.875.292.146.438.218.512.291.073.22.073.73-.147 1.313z"/></svg></svg>